arm26_states
version=1
nRows=38
nColumns=17
inDegrees=yes

# SIMM Motion File Header:
name arm26_states
datacolumns 17
datarows 38
otherdata 1
range 0.20114792 0.24558980
endheader
time	/jointset/r_shoulder/r_shoulder_elev/value	/jointset/r_shoulder/r_shoulder_elev/speed	/jointset/r_elbow/r_elbow_flex/value	/jointset/r_elbow/r_elbow_flex/speed	/forceset/TRIlong/activation	/forceset/TRIlong/fiber_length	/forceset/TRIlat/activation	/forceset/TRIlat/fiber_length	/forceset/TRImed/activation	/forceset/TRImed/fiber_length	/forceset/BIClong/activation	/forceset/BIClong/fiber_length	/forceset/BICshort/activation	/forceset/BICshort/fiber_length	/forceset/BRA/activation	/forceset/BRA/fiber_length
      0.20114792	     -3.38156383	    -20.81569496	     18.70977884	    172.16809379	     -0.00025822	      0.14177771	      0.00520631	      0.07774362	      0.00500341	      0.07276032	      0.09652025	      0.14473452	      0.02324009	      0.14382342	     -0.00049400	      0.08897405
      0.20261313	     -3.41208295	    -20.84214337	     18.96254147	    172.84824810	     -0.00044647	      0.14185971	      0.00515545	      0.07784656	      0.00495254	      0.07286027	      0.09649645	      0.14466469	      0.02322096	      0.14374564	     -0.00062946	      0.08891520
      0.20378848	     -3.43658897	    -20.85631496	     19.16600743	    173.36704690	     -0.00059747	      0.14192580	      0.00511549	      0.07792948	      0.00491259	      0.07294670	      0.09648208	      0.14460798	      0.02320626	      0.14368256	     -0.00073853	      0.08886787
      0.20496384	     -3.46110923	    -20.86709186	     19.37007282	    173.87037949	     -0.00074848	      0.14199216	      0.00507628	      0.07801267	      0.00487338	      0.07302646	      0.09647183	      0.14455064	      0.02319213	      0.14361888	     -0.00084796	      0.08882043
      0.20613920	     -3.48563874	    -20.87149764	     19.57471656	    174.34953968	     -0.00089948	      0.14205877	      0.00503782	      0.07809614	      0.00483492	      0.07311178	      0.09646562	      0.14449268	      0.02317856	      0.14355459	     -0.00095775	      0.08877291
      0.20754983	     -3.51508113	    -20.87159469	     19.82105135	    174.90210298	     -0.00108072	      0.14213906	      0.00499266	      0.07819667	      0.00478975	      0.07320881	      0.09646427	      0.14442231	      0.02316300	      0.14347665	     -0.00109001	      0.08871576
      0.20868140	     -3.53869556	    -20.86481351	     20.01920336	    175.31950394	     -0.00122610	      0.14220371	      0.00495721	      0.07827757	      0.00475431	      0.07329349	      0.09648492	      0.14436520	      0.02315107	      0.14341352	     -0.00119648	      0.08866983
      0.20981296	     -3.56230023	    -20.85497079	     20.21781862	    175.72279904	     -0.00137148	      0.14226859	      0.00492253	      0.07835869	      0.00471962	      0.07337128	      0.09653650	      0.14430749	      0.02313965	      0.14334983	     -0.00130332	      0.08862384
      0.21094453	     -3.58589067	    -20.83926293	     20.41687832	    176.10380458	     -0.00151686	      0.14233367	      0.00488863	      0.07844002	      0.00468573	      0.07345405	      0.09661478	      0.14424916	      0.02312873	      0.14328561	     -0.00141052	      0.08857778
      0.21239969	     -3.61619675	    -20.81353859	     20.67347868	    176.57010130	     -0.00170382	      0.14241768	      0.00484619	      0.07854490	      0.00464329	      0.07355571	      0.09674781	      0.14417319	      0.02311540	      0.14320223	     -0.00154892	      0.08851846
      0.21351233	     -3.63934073	    -20.78728699	     20.87012431	    176.90172213	     -0.00184678	      0.14248213	      0.00481462	      0.07862531	      0.00461172	      0.07363987	      0.09686982	      0.14411439	      0.02310574	      0.14313789	     -0.00165516	      0.08847304
      0.21462497	     -3.66245360	    -20.75823202	     21.06713063	    177.22027134	     -0.00198973	      0.14254677	      0.00478381	      0.07870589	      0.00458091	      0.07371721	      0.09700633	      0.14405497	      0.02309654	      0.14307303	     -0.00176176	      0.08842757
      0.21573761	     -3.68553132	    -20.72373592	     21.26448041	    177.51805498	     -0.00213268	      0.14261159	      0.00475376	      0.07878664	      0.00455085	      0.07379929	      0.09715504	      0.14399494	      0.02308780	      0.14300767	     -0.00186871	      0.08838208
      0.21724917	     -3.71681714	    -20.67140329	     21.53309881	    177.89889127	     -0.00232689	      0.14269992	      0.00471416	      0.07889658	      0.00451125	      0.07390566	      0.09737331	      0.14391242	      0.02307662	      0.14291808	     -0.00201458	      0.08832020
      0.21829291	     -3.73837134	    -20.62922382	     21.71890753	    178.13901341	     -0.00246100	      0.14276110	      0.00468771	      0.07897265	      0.00448481	      0.07398564	      0.09753385	      0.14385479	      0.02306936	      0.14285568	     -0.00211567	      0.08827744
      0.21933666	     -3.75988013	    -20.58478294	     21.90496061	    178.36832294	     -0.00259510	      0.14282241	      0.00466202	      0.07904885	      0.00445911	      0.07405921	      0.09770123	      0.14379666	      0.02306246	      0.14279286	     -0.00221706	      0.08823466
      0.22065347	     -3.78694620	    -20.52237968	     22.14001580	    178.63310489	     -0.00276429	      0.14289997	      0.00463067	      0.07914512	      0.00442777	      0.07415710	      0.09792058	      0.14372259	      0.02305427	      0.14271299	     -0.00234539	      0.08818065
      0.22197029	     -3.81392648	    -20.45557437	     22.37540467	    178.87836124	     -0.00293349	      0.14297772	      0.00460052	      0.07924158	      0.00439762	      0.07424983	      0.09814747	      0.14364774	      0.02304664	      0.14263244	     -0.00247419	      0.08812662
      0.22310539	     -3.83711006	    -20.39177245	     22.57855858	    179.06624688	     -0.00307933	      0.14304491	      0.00457549	      0.07932483	      0.00437259	      0.07433727	      0.09834802	      0.14358261	      0.02304051	      0.14256248	     -0.00258560	      0.08808004
      0.22424049	     -3.86021941	    -20.32562966	     22.78191765	    179.24236144	     -0.00322518	      0.14311224	      0.00455135	      0.07940819	      0.00434844	      0.07441651	      0.09855240	      0.14351691	      0.02303479	      0.14249204	     -0.00269736	      0.08803344
      0.22537559	     -3.88325083	    -20.25380688	     22.98546548	    179.39691014	     -0.00337102	      0.14317970	      0.00452802	      0.07949164	      0.00432512	      0.07450234	      0.09876002	      0.14345067	      0.02302942	      0.14242111	     -0.00280961	      0.08798684
      0.22651069	     -3.90619872	    -20.17898926	     23.18918005	    179.53776430	     -0.00351687	      0.14324730	      0.00450457	      0.07957517	      0.00430167	      0.07458326	      0.09897093	      0.14338389	      0.02302395	      0.14234971	     -0.00292427	      0.08794024
      0.22764579	     -3.92905907	    -20.09913341	     23.39304407	    179.65892040	     -0.00366272	      0.14331501	      0.00448071	      0.07965878	      0.00427781	      0.07466835	      0.09918477	      0.14331657	      0.02301823	      0.14227785	     -0.00304194	      0.08789363
      0.22909258	     -3.95806167	    -19.99291671	     23.65307225	    179.79320041	     -0.00384862	      0.14340148	      0.00444970	      0.07976544	      0.00424680	      0.07477129	      0.09946082	      0.14323003	      0.02301059	      0.14218558	     -0.00319627	      0.08783425
      0.23014187	     -3.97899718	    -19.91027308	     23.84176929	    179.86910308	     -0.00398344	      0.14346431	      0.00442679	      0.07984284	      0.00422388	      0.07485283	      0.09966306	      0.14316674	      0.02300480	      0.14211821	     -0.00331125	      0.08779120
      0.23119117	     -3.99984473	    -19.82572490	     24.03054010	    179.93518621	     -0.00411827	      0.14352723	      0.00440352	      0.07992029	      0.00420062	      0.07492731	      0.09986672	      0.14310302	      0.02299880	      0.14205046	     -0.00342879	      0.08774816
      0.23246875	     -4.02510515	    -19.71699827	     24.26046298	    179.99293702	     -0.00428243	      0.14360395	      0.00437471	      0.08001463	      0.00417181	      0.07502349	      0.10011631	      0.14302487	      0.02299124	      0.14196746	     -0.00357538	      0.08769579
      0.23374634	     -4.05022369	    -19.60462019	     24.49044685	    180.03365364	     -0.00444659	      0.14368078	      0.00434549	      0.08010901	      0.00414259	      0.07511422	      0.10036707	      0.14294611	      0.02298342	      0.14188392	     -0.00372557	      0.08764345
      0.23502393	     -4.07519524	    -19.48525744	     24.72046870	    180.04750955	     -0.00461075	      0.14375772	      0.00431725	      0.08020341	      0.00411435	      0.07521576	      0.10061535	      0.14286675	      0.02297586	      0.14179985	     -0.00387669	      0.08759116
      0.23602343	     -4.09462398	    -19.39099055	     24.90042976	    180.05131478	     -0.00473918	      0.14381799	      0.00429617	      0.08027727	      0.00409327	      0.07528295	      0.10080739	      0.14280425	      0.02297024	      0.14173371	     -0.00399498	      0.08755027
      0.23702294	     -4.11395610	    -19.29193030	     25.08038560	    180.03711490	     -0.00486761	      0.14387831	      0.00427597	      0.08035113	      0.00407306	      0.07535754	      0.10099782	      0.14274141	      0.02296488	      0.14166724	     -0.00411332	      0.08750942
      0.23861333	     -4.14450893	    -19.12901577	     25.36668222	    179.99085193	     -0.00507197	      0.14397440	      0.00424564	      0.08046864	      0.00404274	      0.07547276	      0.10129804	      0.14264070	      0.02295687	      0.14156083	     -0.00430171	      0.08744447
      0.23977608	     -4.16667914	    -19.00415985	     25.57593483	    179.93377879	     -0.00522137	      0.14404472	      0.00422488	      0.08055452	      0.00402198	      0.07556215	      0.10151575	      0.14256654	      0.02295141	      0.14148253	     -0.00443952	      0.08739706
      0.24093882	     -4.18870235	    -18.87699781	     25.78511256	    179.86453295	     -0.00537078	      0.14411510	      0.00420532	      0.08064038	      0.00400241	      0.07564412	      0.10173224	      0.14249192	      0.02294628	      0.14140382	     -0.00457740	      0.08734969
      0.24210157	     -4.21057499	    -18.74442674	     25.99419867	    179.77394641	     -0.00552019	      0.14418554	      0.00418695	      0.08072620	      0.00398404	      0.07573274	      0.10194747	      0.14241687	      0.02294146	      0.14132471	     -0.00471535	      0.08730239
      0.24326431	     -4.23229160	    -18.60930838	     26.20317073	    179.67041063	     -0.00566960	      0.14425601	      0.00416979	      0.08081198	      0.00396688	      0.07581529	      0.10215914	      0.14234139	      0.02293688	      0.14124520	     -0.00485334	      0.08725516
      0.24442706	     -4.25384852	    -18.46913422	     26.41201161	    179.54650086	     -0.00581901	      0.14432653	      0.00415384	      0.08089769	      0.00395094	      0.07590324	      0.10236725	      0.14226549	      0.02293250	      0.14116529	     -0.00499137	      0.08720799
      0.24558980	     -4.27524053	    -18.32620751	     26.62069955	    179.40896471	     -0.00596842	      0.14439707	      0.00413911	      0.08098334	      0.00393621	      0.07598624	      0.10257238	      0.14218918	      0.02292833	      0.14108501	     -0.00512944	      0.08716088
